<svg width="126" height="50" viewBox="0 0 126 50" fill="none" xmlns="http://www.w3.org/2000/svg">
<path d="M11.8 35.9999V29.4399H13.8V11.4399H11.8V4.87988H28.68V11.4399H25V29.4399H28.6V25.7599H36.56V35.9999H11.8Z" fill="#666666"/>
<path d="M49.7728 36.5599C45.9861 36.5599 43.0261 35.5732 40.8928 33.5999C38.7595 31.5999 37.6928 28.6932 37.6928 24.8799C37.6928 21.0666 38.7595 18.1732 40.8928 16.1999C43.0261 14.1999 45.9861 13.1999 49.7728 13.1999C53.6128 13.1999 56.5861 14.2132 58.6928 16.2399C60.7995 18.2399 61.8528 21.1199 61.8528 24.8799C61.8528 28.6932 60.7861 31.5999 58.6528 33.5999C56.5195 35.5732 53.5595 36.5599 49.7728 36.5599ZM49.7728 29.4399C50.5461 29.4399 51.1195 29.2399 51.4928 28.8399C51.8928 28.4132 52.0928 27.7599 52.0928 26.8799V22.8799C52.0928 21.9999 51.8928 21.3599 51.4928 20.9599C51.1195 20.5332 50.5461 20.3199 49.7728 20.3199C48.9995 20.3199 48.4128 20.5332 48.0128 20.9599C47.6395 21.3599 47.4528 21.9999 47.4528 22.8799V26.8799C47.4528 27.7599 47.6395 28.4132 48.0128 28.8399C48.4128 29.2399 48.9995 29.4399 49.7728 29.4399Z" fill="#666666"/>
<path d="M74.8462 45.4399C72.9262 45.4399 71.0862 45.3066 69.3262 45.0399C67.5929 44.7732 66.2462 44.4666 65.2862 44.1199V37.5599C68.1129 38.0666 70.6462 38.3199 72.8862 38.3199C74.4062 38.3199 75.4996 38.0799 76.1662 37.5999C76.8596 37.1466 77.2062 36.2799 77.2062 34.9999V33.2799C76.5396 34.1332 75.6729 34.8932 74.6062 35.5599C73.5662 36.2266 72.3662 36.5599 71.0062 36.5599C68.2862 36.5599 66.2329 35.5466 64.8462 33.5199C63.4862 31.4932 62.8062 28.6132 62.8062 24.8799C62.8062 21.1466 63.4862 18.2666 64.8462 16.2399C66.2329 14.2132 68.2862 13.1999 71.0062 13.1999C72.3662 13.1999 73.5662 13.5332 74.6062 14.1999C75.6729 14.8666 76.5396 15.6265 77.2062 16.4799V13.7599H88.1662V20.3199H86.4062V34.3999C86.4062 38.2666 85.4462 41.0666 83.5262 42.7999C81.6062 44.5599 78.7129 45.4399 74.8462 45.4399ZM74.8862 29.4399C75.6596 29.4399 76.2329 29.2399 76.6062 28.8399C77.0062 28.4132 77.2062 27.7599 77.2062 26.8799V22.8799C77.2062 21.9999 77.0062 21.3599 76.6062 20.9599C76.2329 20.5332 75.6596 20.3199 74.8862 20.3199C74.1129 20.3199 73.5262 20.5332 73.1262 20.9599C72.7529 21.3599 72.5662 21.9999 72.5662 22.8799V26.8799C72.5662 27.7599 72.7529 28.4132 73.1262 28.8399C73.5262 29.2399 74.1129 29.4399 74.8862 29.4399Z" fill="#666666"/>
<path d="M101.218 36.5599C97.4314 36.5599 94.4714 35.5732 92.3381 33.5999C90.2048 31.5999 89.1381 28.6932 89.1381 24.8799C89.1381 21.0666 90.2048 18.1732 92.3381 16.1999C94.4714 14.1999 97.4314 13.1999 101.218 13.1999C105.058 13.1999 108.031 14.2132 110.138 16.2399C112.245 18.2399 113.298 21.1199 113.298 24.8799C113.298 28.6932 112.231 31.5999 110.098 33.5999C107.965 35.5732 105.005 36.5599 101.218 36.5599ZM101.218 29.4399C101.991 29.4399 102.565 29.2399 102.938 28.8399C103.338 28.4132 103.538 27.7599 103.538 26.8799V22.8799C103.538 21.9999 103.338 21.3599 102.938 20.9599C102.565 20.5332 101.991 20.3199 101.218 20.3199C100.445 20.3199 99.8581 20.5332 99.4581 20.9599C99.0848 21.3599 98.8981 21.9999 98.8981 22.8799V26.8799C98.8981 27.7599 99.0848 28.4132 99.4581 28.8399C99.8581 29.2399 100.445 29.4399 101.218 29.4399Z" fill="#666666"/>
</svg>
